<svg xmlns="http://www.w3.org/2000/svg" style="display: none;">
  <symbol id="os-ubuntu" viewBox="0 0 24 24">
    <path fill="#E95420" d="M12 0C5.373 0 0 5.373 0 12s5.373 12 12 12 12-5.373 12-12S18.627 0 12 0zm6.269 3.865c1.173 0 2.125.953 2.125 2.127 0 1.173-.952 2.125-2.125 2.125-1.174 0-2.127-.952-2.127-2.125 0-1.174.953-2.127 2.127-2.127zM3.604 12c0-1.174.952-2.127 2.125-2.127 1.174 0 2.127.953 2.127 2.127 0 1.173-.953 2.125-2.127 2.125-1.173 0-2.125-.952-2.125-2.125zm14.665 8.135c-1.173 0-2.125-.952-2.125-2.125 0-1.174.952-2.127 2.125-2.127 1.174 0 2.127.953 2.127 2.127 0 1.173-.953 2.125-2.127 2.125zm-2.002-3.868a8.211 8.211 0 0 1-8.533 0l-1.393 2.41a10.984 10.984 0 0 0 11.32 0l-1.394-2.41zm3.264-6.402a8.204 8.204 0 0 1-1.353 7.37l2.412 1.393a10.988 10.988 0 0 0 1.81-9.865l-2.869 1.102zM6.92 4.148a10.986 10.986 0 0 0-3.619 8.653h2.784a8.203 8.203 0 0 1 2.706-6.471l-1.871-2.182zm3.327 4.12l-1.394-2.411a10.985 10.985 0 0 0-4.475 7.74h2.784a8.205 8.205 0 0 1 3.085-5.329z"/>
  </symbol>

  <symbol id="os-debian" viewBox="-32 -32 576 576">
    <path fill="#A80030" d="M141.5 354.2c-5.7-18.1-9.3-37.1-9.3-58.2 0-38.3 11-73.8 31.7-103.5 27.5-39.4 69.9-63.5 119.5-63.5 34.6 0 65.6 11.2 90.3 32.8 28.5 24.8 44.9 59.9 44.9 96.5 0 25.4-8.8 49-24.8 67.5-17.1 19.8-40.4 31.1-66.3 31.1-23.7 0-42.3-9.5-54.7-28-5.3-7.9-8.4-17.5-8.4-27.6 0-14 6.7-27.1 18.2-34.9 11-7.4 24.3-10.5 37.5-9 6.2.7 12.5.4 18.4-1.2 13-3.6 22.3-15.1 22.3-28.5 0-16.7-13.8-30.6-30.8-30.6-21.7 0-39.6 17.5-39.6 39.4 0 9.8 3.5 18.8 9.3 25.8 4.2 5 10.3 7.8 16.9 7.8 8.8 0 16.5-5.2 20.3-13.1 3-6.1 4.4-13.1 4.4-20.1 0-21.9-18.2-40.1-40.5-40.1-27.3 0-49.8 22-49.8 49.3 0 14.5 6.3 28 17.3 37.7 11.3 9.9 26.6 15.3 42.6 15.3 30.6 0 57.5-15.3 74.5-42.3 11.8-18.8 18.2-41 18.2-64.2 0-40.3-18.6-77.8-51.5-104.8-29.3-24.1-66-36.8-105-36.8-57.8 0-107.5 27.8-139.2 73.6-23.9 34.6-36.8 75.6-36.8 119.5 0 26.5 4.6 52.1 12.9 76.5 2.6 7.6 10.1 12.2 18 12.2 13.5 0 22.5-13.3 18.6-26.3zM256 8C119 8 8 119 8 256s111 248 248 248 248-111 248-248S393 8 256 8zm0 448c-110.3 0-200-89.7-200-200S145.7 56 256 56s200 89.7 200 200-89.7 200-200 200z"/>
  </symbol>

  <symbol id="os-centos" viewBox="0 0 24 24">
    <path fill="#262577" d="M24 10.518h-8.069l2.766-2.764-1.042-1.043-4.148 4.148L12 9.34l-1.507 1.507 4.148 4.147-1.042 1.042-2.766-2.766V5.201H0v13.597h8.069l-2.766 2.764 1.042 1.043 4.148-4.148L12 19.86l1.507-1.507-4.148-4.147 1.042-1.042 2.766 2.766V24h24V10.518z"/>
  </symbol>

  <symbol id="os-alpine" viewBox="0 0 24 24">
    <path fill="#0D597F" d="M12 1.5l11.5 21H.5L12 1.5zm0 4.19l-9.19 16.8h18.38L12 5.69z M5.48 18.06L12 6.16l6.52 11.9H5.48z" />
  </symbol>

  <symbol id="os-arch" viewBox="0 0 24 24">
    <path fill="#1793D1" d="M12 .397L.581 23.603h4.484l2.452-5.748h9.043l2.452 5.748h4.407L12 .397zm0 6.643c1.396 0 2.529 1.134 2.529 2.529 0 1.396-1.133 2.529-2.529 2.529-1.395 0-2.528-1.133-2.528-2.529 0-1.395 1.133-2.529 2.528-2.529zm-3.088 8.847h6.176l1.248 2.925H7.664l1.248-2.925z"/>
  </symbol>

  <symbol id="os-windows" viewBox="0 0 24 24">
    <path fill="#0078D6" d="M0 3.449L9.75 2.1v9.451H0m10.949-9.602L24 0v11.4H10.949M0 12.6h9.75v9.451L0 20.699M10.949 12.6H24V24l-13.051-1.801"/>
  </symbol>

  <symbol id="os-apple" viewBox="-4 0 28 28">
    <path fill="#999999" d="M16.513 14.808c-.027-3.15 2.576-4.685 2.695-4.757-1.468-2.148-3.743-2.441-4.56-2.484-1.954-.197-3.81 1.15-4.808 1.15-1.001 0-2.528-1.127-4.14-1.094-2.115.033-4.067 1.228-5.152 3.118-2.196 3.805-.561 9.434 1.577 12.524 1.047 1.515 2.28 3.203 3.914 3.143 1.576-.062 2.174-1.018 4.086-1.018 1.908 0 2.451 1.018 4.106.985 1.693-.032 2.766-1.547 3.8-3.06 1.2-1.751 1.696-3.448 1.722-3.535-.038-.016-3.21-1.233-3.24-4.972zM14.618 4.887c.866-1.048 1.45-2.503 1.29-3.957-1.246.05-2.756.83-3.642 1.874-.796.932-1.488 2.408-1.31 3.834 1.393.108 2.798-.702 3.662-1.751z"/>
  </symbol>

  <symbol id="os-linux" viewBox="-32 -32 512 576">
    <path fill="#333" d="M220.8 123.3c1 .5 1.8 1.7 3 1.7 1.1 0 2.8-.4 2.9-1.5.2-1.4-1.9-2.3-3.2-2.9-1.7-.7-3.9-1-5.5-.1-.4.2-.8.7-.6 1.1.3 1.3 2.3 1.1 3.4 1.7zm-27.4 24.9c-1.7-.4-3.2-1.5-4.8-1.5s-2.9 1.2-4.6 1.5c-2.8.5-6.3 1-8.5 2.6-1.5 1.1-2.8 3.1-3.3 5-.5 2 0 4.1 1.4 5.5 1.7 1.6 4.3 1.8 6.4 1.7 3.9-.2 7.7-1.4 11.2-3.1 1.7-.8 3.5-1.9 4.8-3.4 1.2-1.5 1.8-3.6 1.5-5.5-.3-2.1-2-3-4.1-2.8zm73.4 0c-2.1-.2-3.8.7-4.1 2.8-.3 1.9.3 4 1.5 5.5 1.3 1.5 3.1 2.6 4.8 3.4 3.5 1.7 7.3 2.9 11.2 3.1 2.1.1 4.7-.1 6.4-1.7 1.4-1.4 1.9-3.5 1.4-5.5-.5-1.9-1.8-3.9-3.3-5-2.2-1.6-5.7-2.1-8.5-2.6-1.7-.3-3.1-1.5-4.8-1.5s-3 .1-4.6 1.5zM432 400c0 44.1-53.7 80-120 80h-176C69.7 480 16 444.1 16 400c0-26.6 18.6-50.3 47.7-65 4.6-2.3 9.4-4.4 14.5-6.2 13-13.8 28.5-24 46.1-30.8V233.1C124.3 104.3 167.3 16 224 16s99.7 88.3 99.7 217.1v64.9c17.6 6.8 33.1 17 46.1 30.8 5.1 1.8 9.9 3.9 14.5 6.2 29.1 14.7 47.7 38.4 47.7 65zm-144-48c0-26.5-35.8-48-80-48s-80 21.5-80 48 35.8 48 80 48 80-21.5 80-48z"/>
  </symbol>
</svg>